# xmcd CD database file generated by MAGIX_Freedb v0.9beta0
# 
# Track frame offsets:
#      150
#      12652
#      24221
#      34400
#      41705
#      54322
#      68172
#      79715
#      107250
#      116850
#      127649
#      140397
#      153375
#      162532
#      171750
#      184058
#      195903
#      205603
#      216046
#      225858
# 
# Disc length: 3167 seconds
# 
# Revision: 3 
# Processed by: cddbd v1.5.1PL0 Copyright (c) Steve Scherf et al.
# Submitted via: MAGIX_Freedb v0.9beta0
# 
DISCID=fc0c5d14
DTITLE=Various Artist - Country Classics Vol1
DYEAR=2001
DGENRE=Country
TTITLE0=Leroy Van Dyke - The Auctioneer
TTITLE1=Kenny Rogers - Me And Bobby McGee
TTITLE2=Jeannie C Riley - He Made A Woman Out Of Me
TTITLE3=Conway Twitty - Treat Me Mean Treat Me Cruel
TTITLE4=Hank Williams - Honky Tonkin'
TTITLE5=Patsy Cline - A Church A Courtroom Then Goodbye
TTITLE6=Lynn Anderson - Listen To A Country Song
TTITLE7=Ed Bruce - Another Place Another Time
TTITLE8=Dave Dudley - Six Days On The Road
TTITLE9=Ferlin Huskey - Wings Of A Dove
TTITLE10=Faron Young - It's Four In The Morning
TTITLE11=Billie Jo Spears - Dallas
TTITLE12=Webb Pierce - Honky Tonk Song
TTITLE13=Frankie Laine - Rawhide
TTITLE14=Freddy Fender - Wasted Days And Wasted Nights
TTITLE15=Barbara Fairchild - Cheatin' Is
TTITLE16=Ed Bruce - King Of Fools
TTITLE17=Waylon Jennings - White Lightnin'
TTITLE18=Jerry Wallace - King Of The Mountain
TTITLE19=Kenny Rogers - Elvira
EXTD=YEAR: 2001 ID3G: 2
EXTT0=
EXTT1=
EXTT2=
EXTT3=
EXTT4=
EXTT5=
EXTT6=
EXTT7=
EXTT8=
EXTT9=
EXTT10=
EXTT11=
EXTT12=
EXTT13=
EXTT14=
EXTT15=
EXTT16=
EXTT17=
EXTT18=
EXTT19=
PLAYORDER=
